# xmcd
#
# Track frame offsets:
#	225
#	10408
#	21192
#	32569
#	42903
#	58601
#	77185
#	85955
#	95598
#	111723
#	128849
#	139879
#	151475
#	164111
#	177100
#	190872
#
# Disc length: 2698 seconds
#
# Revision: 1
# Processed by: cddbd v1.5.1PL0 Copyright (c) Steve Scherf et al.
# Submitted via: audiograbber 1.83.01
#
DISCID=de0a8710
DTITLE=original artists - The best of Country 2, CD 2
DYEAR=1900
DGENRE=Country
TTITLE0=Reeves Jim - He'll have to go
TTITLE1=Roger Miller - King of the road
TTITLE2=Don Gibson - A legend in my time
TTITLE3=Loretta Lynn - You're looking at country
TTITLE4=Don Williams - Tears
TTITLE5=John Denver - Tenderly calling
TTITLE6=Waylon Jennings - Love's gonna live here
TTITLE7=Charley Pride - Kiss an Angel good morning
TTITLE8=Mac Wiseman - 18 Wheels hummin' home sweet homeTrack  9
TTITLE9=Lynn Anderson - Blue Bayou
TTITLE10=Hank Lockling - Send me the pillow that you dream on
TTITLE11=Johnny Cash - These hands
TTITLE12=George Jones - Don't be angry
TTITLE13=Ferlin Husky - Behind close doors 
TTITLE14=Brenda Lee- You don't have to say you love me
TTITLE15=Johnny Dollar - Big wheels sing for me
EXTD=
EXTT0=
EXTT1=
EXTT2=
EXTT3=
EXTT4=
EXTT5=
EXTT6=
EXTT7=
EXTT8=
EXTT9=
EXTT10=
EXTT11=
EXTT12=
EXTT13=
EXTT14=
EXTT15=
PLAYORDER=
